<svg width="90" height="90" viewBox="0 0 90 90" xmlns="http://www.w3.org/2000/svg" xmlns:xlink="http://www.w3.org/1999/xlink" id="Capa_1" overflow="hidden"><g><path d="M90 15.001C90 7.119 82.884 0 75 0L15 0C7.116 0 0 7.119 0 15.001L0 74.999C0 82.881 7.116 90 15.001 90L45 90 45 56 34 56 34 41 45 41 45 35.156C45 25.077 52.568 16 61.875 16L74 16 74 31 61.875 31C60.548 31 59 32.611 59 35.024L59 41 74 41 74 56 59 56 59 90 75 90C82.884 90 90 82.881 90 74.999L90 15.001Z" id="Facebook__x28_alt_x29_" fill="#FFFFFF"/></g><g></g><g></g><g></g><g></g><g></g><g></g><g></g><g></g><g></g><g></g><g></g><g></g><g></g><g></g><g></g></svg>