<svg viewBox="0 0 364 364" xmlns="http://www.w3.org/2000/svg" xmlns:xlink="http://www.w3.org/1999/xlink" id="Layer_1" overflow="hidden"><g><path d="M244.424 83.438 119.577 83.438C99.652 83.438 83.438 99.651 83.438 119.577L83.438 244.423C83.438 264.352 99.652 280.566 119.577 280.566L244.424 280.566C264.352 280.566 280.566 264.352 280.566 244.423L280.566 119.577C280.566 99.652 264.352 83.438 244.424 83.438ZM181.998 246.894C146.219 246.894 117.106 217.781 117.106 181.998 117.106 146.219 146.219 117.106 181.998 117.106 217.781 117.106 246.894 146.219 246.894 181.998 246.894 217.781 217.781 246.894 181.998 246.894ZM248.982 130.525C240.511 130.525 233.623 123.637 233.623 115.171 233.623 106.704 240.511 99.816 248.982 99.816 257.448 99.816 264.336 106.704 264.336 115.171 264.336 123.638 257.448 130.525 248.982 130.525Z" fill="#FFFFFF" fill-rule="evenodd" clip-rule="evenodd"/><path d="M181.998 144.531C161.343 144.531 144.523 161.343 144.523 181.998 144.523 202.661 161.343 219.477 181.998 219.477 202.661 219.477 219.469 202.661 219.469 181.998 219.469 161.343 202.661 144.531 181.998 144.531Z" fill="#FFFFFF" fill-rule="evenodd" clip-rule="evenodd"/><path d="M0 0 0 364 364 364 364 0 0 0ZM307.984 244.423C307.984 279.476 279.476 307.984 244.424 307.984L119.577 307.984C84.528 307.984 56.016 279.476 56.016 244.423L56.016 119.577C56.016 84.528 84.528 56.016 119.577 56.016L244.424 56.016C279.476 56.016 307.984 84.528 307.984 119.577L307.984 244.423Z" fill="#FFFFFF" fill-rule="evenodd" clip-rule="evenodd"/></g><g></g><g></g><g></g><g></g><g></g><g></g><g></g><g></g><g></g><g></g><g></g><g></g><g></g><g></g><g></g></svg>